<svg width="32" height="32" viewBox="0 0 32 32" fill="none" xmlns="http://www.w3.org/2000/svg">
    <circle cx="16" cy="16" r="16" fill="#6D8434" />
    <path
        d="M16.9297 8.88995C16.6402 8.45006 16.251 8.08462 15.7938 7.82328C14.5372 7.10245 12.918 7.22912 11.4238 8.06578C8.64967 9.61995 6.83301 12.5416 6.83301 15.9999C6.83301 20.6166 10.1747 24.3441 14.5388 25.0499C15.0155 25.1266 15.503 25.1666 15.9997 25.1666C17.2106 25.1709 18.4104 24.9343 19.5291 24.4708C20.6478 24.0072 21.6632 23.3258 22.5161 22.4662C23.3691 21.6066 24.0427 20.586 24.4977 19.4638C24.9526 18.3415 25.1799 17.14 25.1663 15.9291C25.1472 14.3191 24.5013 12.3433 23.4805 10.7641C22.4638 9.19078 20.9005 7.75745 18.958 7.77578C18.0097 7.77745 17.3622 8.29912 16.9297 8.89078V8.88995ZM22.4755 12.3441C22.1275 12.2881 21.7735 12.2789 21.423 12.3166L20.4563 10.6916L19.0247 11.5416L19.768 12.7916C19.457 12.938 19.1599 13.1123 18.8805 13.3124C18.8756 13.2963 18.8706 13.2802 18.8655 13.2641C18.643 12.5891 18.213 12.0349 17.6397 11.4841L17.643 11.4674C17.7005 11.1983 17.7922 10.8508 17.9297 10.5133C18.2405 9.74995 18.6013 9.44078 18.963 9.44078H18.9722C20.048 9.42912 21.1688 10.2549 22.0813 11.6666C22.223 11.8858 22.3547 12.1116 22.4763 12.3433L22.4755 12.3441ZM17.3413 14.8416C17.0663 14.8483 16.7838 14.8791 16.508 14.9391C16.2831 14.5626 15.9816 14.2375 15.623 13.9849C14.9647 13.5224 14.063 13.2933 13.088 13.6574C12.9987 13.606 12.9087 13.5557 12.818 13.5066L15.5122 10.8658L14.3455 9.67578L11.1497 12.8083C10.4747 12.6124 9.84384 12.5424 9.27717 12.6208C9.92929 11.3118 10.962 10.2306 12.2397 9.51912C13.3763 8.88245 14.3538 8.91745 14.9655 9.26828C15.5488 9.60245 16.033 10.3608 15.9113 11.7158L15.8738 12.1349L16.1888 12.4141C16.8738 13.0199 17.1588 13.4116 17.2822 13.7858C17.3688 14.0483 17.3972 14.3658 17.3413 14.8416ZM14.9997 15.6791C14.288 16.2749 13.8105 17.1108 13.533 18.0141L11.0547 15.2933L9.82217 16.4166L13.2288 20.1566C13.2247 21.1499 13.3522 22.1666 13.5372 23.0858C12.0622 22.5794 10.7831 21.6235 9.87951 20.3525C8.97594 19.0816 8.49338 17.5594 8.49967 15.9999C8.49967 15.1333 8.74051 14.6608 9.02384 14.4541C9.29134 14.2574 9.87884 14.0966 11.0822 14.5408C11.5172 14.7016 12.0205 14.9483 12.5963 15.3066L13.0147 15.5666L13.4447 15.3249C13.9638 15.0333 14.3605 15.1366 14.6647 15.3499C14.798 15.4433 14.9122 15.5599 14.9997 15.6791ZM16.4705 23.4849L22.5472 16.7874L21.313 15.6674L18.8697 18.3599L18.8755 17.5149L17.2088 17.5033L17.1897 20.2116L15.1205 22.4924C14.9638 21.6416 14.8705 20.7274 14.9005 19.8699C14.9538 18.4074 15.538 17.2058 16.4022 16.7299C16.7605 16.5324 17.393 16.4549 17.893 16.5433L18.6347 16.6724L18.8388 15.9483C18.9455 15.5708 19.228 15.1666 19.6697 14.8066C20.1178 14.4444 20.6393 14.184 21.198 14.0433C21.8655 13.8799 22.4347 13.9649 22.8097 14.2233C23.1372 14.4483 23.4663 14.9083 23.4972 15.8516V15.8666L23.4997 15.9999C23.508 17.91 22.7839 19.7506 21.4764 21.1429C20.1688 22.5353 18.3773 23.3734 16.4705 23.4849Z"
        fill="#E8E8E2" />
</svg>