<svg aria-hidden="true" style="position: absolute; width: 0; height: 0; overflow: hidden;" version="1.1" xmlns="http://www.w3.org/2000/svg" xmlns:xlink="http://www.w3.org/1999/xlink">
<defs>
<symbol id="icon-yellow-cart" viewBox="0 0 38 32">
<path d="M0 0h37.486v32h-37.486v-32z"></path>
</symbol>
<symbol id="icon-cart-header" viewBox="0 0 32 32">
<path fill="#6d8434" style="fill: var(--color1, #6d8434)" d="M16 0c8.837 0 16 7.163 16 16s-7.163 16-16 16c-8.837 0-16-7.163-16-16s7.163-16 16-16z"></path>
<path fill="#e8e8e2" style="fill: var(--color2, #e8e8e2)" d="M10.695 9.179c-0.201 0-0.394 0.080-0.536 0.222s-0.222 0.335-0.222 0.536c0 0.201 0.080 0.394 0.222 0.536s0.335 0.222 0.536 0.222h0.925l0.231 0.926c0.002 0.011 0.005 0.021 0.008 0.032l1.029 4.115-0.677 0.676c-0.955 0.955-0.279 2.587 1.072 2.587h6.507c0.201 0 0.394-0.080 0.536-0.222s0.222-0.335 0.222-0.536c0-0.201-0.080-0.394-0.222-0.536s-0.335-0.222-0.536-0.222h-6.507l0.758-0.758h4.991c0.141-0 0.279-0.039 0.398-0.113s0.216-0.18 0.279-0.306l2.274-4.547c0.058-0.116 0.085-0.244 0.079-0.373s-0.044-0.254-0.112-0.364c-0.068-0.11-0.163-0.201-0.276-0.264s-0.24-0.096-0.369-0.096h-8.125l-0.235-0.942c-0.041-0.164-0.136-0.309-0.269-0.413s-0.297-0.16-0.466-0.16h-1.516zM20.548 20.926c0 0.302-0.12 0.591-0.333 0.804s-0.502 0.333-0.804 0.333c-0.302 0-0.591-0.12-0.804-0.333s-0.333-0.502-0.333-0.804c0-0.301 0.12-0.591 0.333-0.804s0.502-0.333 0.804-0.333c0.301 0 0.591 0.12 0.804 0.333s0.333 0.502 0.333 0.804zM13.348 22.063c0.301 0 0.591-0.12 0.804-0.333s0.333-0.502 0.333-0.804c0-0.301-0.12-0.591-0.333-0.804s-0.502-0.333-0.804-0.333c-0.302 0-0.591 0.12-0.804 0.333s-0.333 0.502-0.333 0.804c0 0.302 0.12 0.591 0.333 0.804s0.502 0.333 0.804 0.333z"></path>
</symbol>
</defs>
</svg>
