<svg aria-hidden="true" style="position: absolute; width: 0; height: 0; overflow: hidden;" version="1.1" xmlns="http://www.w3.org/2000/svg" xmlns:xlink="http://www.w3.org/1999/xlink">
<defs>
<symbol id="icon-logo" viewBox="0 0 32 32">
<path fill="#6d8434" style="fill: var(--color1, #6d8434)" d="M32.005 16.003c0 8.838-7.165 16.003-16.003 16.003s-16.003-7.165-16.003-16.003c0-8.838 7.165-16.003 16.003-16.003s16.003 7.165 16.003 16.003z"></path>
<path fill="#e8e8e2" style="fill: var(--color2, #e8e8e2)" d="M16.852 9.501c-0.267-0.403-0.616-0.73-1.023-0.967l-0.015-0.008c-1.15-0.66-2.63-0.544-3.996 0.222-2.538 1.421-4.198 4.092-4.198 7.255 0 4.221 3.055 7.63 7.047 8.276 0.435 0.070 0.881 0.106 1.335 0.106 0.009 0 0.020 0 0.030 0 4.613 0 8.353-3.74 8.353-8.353 0-0.033-0-0.066-0.001-0.099l0 0.005c-0.018-1.472-0.608-3.278-1.542-4.723-0.929-1.438-2.359-2.749-4.136-2.732-0.868 0-1.46 0.478-1.855 1.020v-0.001zM21.924 12.659c-0.173-0.029-0.372-0.046-0.575-0.046-0.136 0-0.271 0.008-0.404 0.022l0.016-0.001-0.884-1.486-1.31 0.777 0.68 1.143c-0.311 0.148-0.577 0.307-0.827 0.487l0.015-0.010c-0.011-0.038-0.015-0.053-0.020-0.068l0.006 0.023c-0.203-0.617-0.597-1.124-1.12-1.628l0.002-0.015c0.053-0.246 0.137-0.564 0.263-0.872 0.283-0.698 0.614-0.981 0.944-0.981h0.008c0.984-0.011 2.009 0.743 2.844 2.035 0.129 0.201 0.249 0.407 0.361 0.62h-0.001zM17.229 14.943c-0.251 0.007-0.51 0.034-0.762 0.089-0.211-0.349-0.481-0.639-0.8-0.866l-0.009-0.006c-0.398-0.29-0.896-0.464-1.436-0.464-0.317 0-0.621 0.060-0.899 0.17l0.017-0.006c-0.029-0.019-0.11-0.065-0.191-0.109l-0.055-0.028 2.463-2.415-1.066-1.088-2.923 2.864c-0.617-0.179-1.193-0.243-1.712-0.171 0.61-1.207 1.538-2.177 2.676-2.82l0.033-0.017c1.040-0.583 1.934-0.55 2.493-0.229 0.534 0.305 0.976 0.999 0.865 2.238l-0.034 0.383 0.288 0.255c0.626 0.554 0.887 0.912 0.999 1.255 0.080 0.24 0.105 0.53 0.055 0.965zM15.087 15.709c-0.65 0.545-1.087 1.31-1.341 2.135l-2.267-2.487-1.127 1.026 3.116 3.42c-0.005 0.909 0.112 1.838 0.281 2.679-2.702-0.948-4.605-3.478-4.605-6.452 0-0.010 0-0.021 0-0.031v0.002c0-0.791 0.221-1.223 0.48-1.413 0.245-0.179 0.782-0.327 1.881 0.080 0.398 0.146 0.858 0.373 1.385 0.7l0.382 0.238 0.393-0.221c0.476-0.266 0.838-0.171 1.116 0.023 0.122 0.086 0.226 0.192 0.306 0.301zM16.432 22.847l5.556-6.124-1.128-1.024-2.235 2.462 0.006-0.773-1.524-0.011-0.018 2.477-1.892 2.086c-0.13-0.644-0.204-1.385-0.204-2.143 0-0.090 0.001-0.179 0.003-0.269l-0 0.013c0.049-1.337 0.583-2.436 1.373-2.871 0.328-0.181 0.906-0.251 1.364-0.171l0.678 0.119 0.187-0.663c0.097-0.344 0.355-0.714 0.759-1.044 0.392-0.319 0.86-0.56 1.373-0.692l0.025-0.006c0.61-0.15 1.132-0.072 1.475 0.165 0.298 0.206 0.6 0.626 0.629 1.488v0.014l0.001 0.122c0 0.009 0 0.019 0 0.030 0 3.63-2.833 6.598-6.408 6.814l-0.019 0.001z"></path>
</symbol>
<symbol id="icon-cart" viewBox="0 0 32 32">
<path fill="#6d8434" style="fill: var(--color1, #6d8434)" d="M16.002 0c8.838 0 16.002 7.164 16.002 16.002s-7.164 16.002-16.002 16.002c-8.838 0-16.002-7.164-16.002-16.002s7.164-16.002 16.002-16.002z"></path>
<path fill="#e8e8e2" style="fill: var(--color2, #e8e8e2)" d="M11.875 10.696c-0.326 0-0.59 0.264-0.59 0.59s0.264 0.59 0.59 0.59h0.719l0.18 0.72 0.006 0.025 0.8 3.2-0.526 0.526c-0.743 0.743-0.216 2.013 0.834 2.013h5.062c0.326 0 0.59-0.264 0.59-0.59s-0.264-0.59-0.59-0.59h-5.062l0.59-0.59h3.883c0.229-0 0.428-0.131 0.526-0.323l0.002-0.003 1.769-3.537c0.039-0.077 0.062-0.168 0.062-0.264 0-0.326-0.264-0.589-0.589-0.59h-6.32l-0.183-0.733c-0.066-0.258-0.297-0.446-0.572-0.446h-1.179zM19.539 19.834c0 0.488-0.396 0.884-0.884 0.884s-0.884-0.396-0.884-0.884v0c0-0.488 0.396-0.884 0.884-0.884s0.884 0.396 0.884 0.884v0zM13.938 20.718c0.488 0 0.884-0.396 0.884-0.884s-0.396-0.884-0.884-0.884v0c-0.488 0-0.884 0.396-0.884 0.884s0.396 0.884 0.884 0.884v0z"></path>
</symbol>
</defs>
</svg>
