<svg aria-hidden="true" style="position: absolute; width: 0; height: 0; overflow: hidden;" version="1.1"
    xmlns="http://www.w3.org/2000/svg" xmlns:xlink="http://www.w3.org/1999/xlink">
    <defs>
        <symbol id="icon-cabbage" viewBox="0 0 32 32">
            <path
                d="M17.488 4.624c-0.463-0.704-1.086-1.289-1.817-1.707-2.011-1.153-4.601-0.951-6.992 0.388-4.439 2.487-7.345 7.161-7.345 12.695 0 7.387 5.347 13.351 12.329 14.48 0.763 0.123 1.543 0.187 2.337 0.187 1.937 0.007 3.857-0.372 5.647-1.113s3.415-1.832 4.779-3.207c1.365-1.375 2.442-3.008 3.17-4.804s1.092-3.718 1.070-5.655c-0.031-2.576-1.064-5.737-2.697-8.264-1.627-2.517-4.128-4.811-7.236-4.781-1.517 0.003-2.553 0.837-3.245 1.784v-0.001zM26.361 10.151c-0.557-0.090-1.123-0.104-1.684-0.044l-1.547-2.6-2.291 1.36 1.189 2c-0.498 0.234-0.973 0.513-1.42 0.833-0.008-0.026-0.016-0.052-0.024-0.077-0.356-1.080-1.044-1.967-1.961-2.848l0.005-0.027c0.092-0.431 0.239-0.987 0.459-1.527 0.497-1.221 1.075-1.716 1.653-1.716h0.015c1.721-0.019 3.515 1.303 4.975 3.561 0.227 0.351 0.437 0.712 0.632 1.083l-0.001 0.001zM18.147 14.147c-0.44 0.011-0.892 0.060-1.333 0.156-0.36-0.602-0.842-1.123-1.416-1.527-1.053-0.74-2.496-1.107-4.056-0.524-0.143-0.082-0.287-0.163-0.432-0.241l4.311-4.225-1.867-1.904-5.113 5.012c-1.080-0.313-2.089-0.425-2.996-0.3 1.043-2.094 2.696-3.824 4.74-4.963 1.819-1.019 3.383-0.963 4.361-0.401 0.933 0.535 1.708 1.748 1.513 3.916l-0.060 0.671 0.504 0.447c1.096 0.969 1.552 1.596 1.749 2.195 0.139 0.42 0.184 0.928 0.095 1.689zM14.4 15.487c-1.139 0.953-1.903 2.291-2.347 3.736l-3.965-4.353-1.972 1.797 5.451 5.984c-0.007 1.589 0.197 3.216 0.493 4.687-2.36-0.81-4.407-2.34-5.852-4.373s-2.218-4.469-2.208-6.964c0-1.387 0.385-2.143 0.839-2.473 0.428-0.315 1.368-0.572 3.293 0.139 0.696 0.257 1.501 0.652 2.423 1.225l0.669 0.416 0.688-0.387c0.831-0.467 1.465-0.301 1.952 0.040 0.213 0.149 0.396 0.336 0.536 0.527zM16.753 27.976l9.723-10.716-1.975-1.792-3.909 4.308 0.009-1.352-2.667-0.019-0.031 4.333-3.311 3.649c-0.251-1.361-0.4-2.824-0.352-4.196 0.085-2.34 1.020-4.263 2.403-5.024 0.573-0.316 1.585-0.44 2.385-0.299l1.187 0.207 0.327-1.159c0.171-0.604 0.623-1.251 1.329-1.827 0.717-0.579 1.551-0.996 2.445-1.221 1.068-0.261 1.979-0.125 2.579 0.288 0.524 0.36 1.051 1.096 1.1 2.605v0.024l0.004 0.213c0.013 3.056-1.145 6.001-3.237 8.229s-4.959 3.569-8.009 3.747z">
            </path>
        </symbol>
        <symbol id="icon-facebook" viewBox="0 0 32 32">
            <path
                d="M19.52 4.64c0.24 0 0.48 0 0.96 0v3.6c-0.24 0-0.72 0-1.2 0s-0.96 0-1.2 0.24c-0.24 0.24-0.24 0.48-0.24 1.040 0 0.48 0 0.8 0 1.28h2.64v3.040h-2.64v13.2h-4.080v-13.28h-2.16v-3.040h2.16v-1.040c0-1.76 0.24-3.040 0.72-3.6 0.72-1.040 2.16-1.52 4.32-1.52 0.24 0.080 0.48 0.080 0.72 0.080z">
            </path>
        </symbol>
        <symbol id="icon-instagram" viewBox="0 0 32 32">
            <path
                d="M28.718 10.756c-0.016-1.074-0.215-2.14-0.596-3.145-0.667-1.716-2.024-3.073-3.743-3.737-0.994-0.373-2.044-0.573-3.108-0.596-1.368-0.061-1.801-0.078-5.273-0.078s-3.916 0-5.274 0.078c-1.062 0.023-2.113 0.223-3.106 0.596-1.719 0.664-3.078 2.021-3.743 3.737-0.374 0.992-0.576 2.041-0.596 3.101-0.061 1.367-0.080 1.8-0.080 5.265s0 3.909 0.080 5.265c0.021 1.062 0.222 2.109 0.596 3.104 0.667 1.714 2.024 3.071 3.744 3.735 0.989 0.386 2.040 0.605 3.106 0.639 1.369 0.061 1.803 0.080 5.274 0.080s3.916 0 5.274-0.080c1.062-0.021 2.112-0.221 3.108-0.595 1.719-0.666 3.076-2.022 3.743-3.737 0.374-0.994 0.574-2.041 0.596-3.104 0.061-1.365 0.080-1.798 0.080-5.265-0.003-3.466-0.003-3.906-0.082-5.264zM15.99 22.531c-3.631 0-6.572-2.936-6.572-6.561s2.941-6.561 6.572-6.561c3.628 0 6.572 2.936 6.572 6.561s-2.944 6.561-6.572 6.561zM22.824 10.696c-0.849 0-1.532-0.684-1.532-1.53s0.684-1.53 1.532-1.53c0.846 0 1.531 0.684 1.531 1.53s-0.685 1.53-1.531 1.53z">
            </path>
            <path
                d="M15.992 19.976c2.211 0 4.004-1.793 4.004-4.004s-1.793-4.004-4.004-4.004c-2.211 0-4.004 1.793-4.004 4.004s1.793 4.004 4.004 4.004z">
            </path>
        </symbol>
        <symbol id="icon-youtube" viewBox="0 0 32 32">
            <path
                d="M24.24 6c-1.36-0.080-4.16-0.16-8.4-0.16h-0.56c-4.080 0-6.8 0.080-8.16 0.24-1.84 0.16-3.12 0.64-3.84 1.28-0.64 0.56-1.12 1.6-1.28 2.96-0.080 0.88-0.16 2.72-0.16 5.52v0.4c0 2.64 0.080 4.48 0.24 5.36 0.24 1.28 0.64 2.24 1.44 2.8 0.8 0.64 2.16 1.040 4.080 1.2 1.36 0.080 4.16 0.16 8.4 0.16h0.56c4.080 0 6.8-0.080 8.16-0.24 1.84-0.16 3.12-0.64 3.84-1.28 0.64-0.56 1.12-1.6 1.28-2.96 0.080-0.88 0.16-2.72 0.16-5.52v-0.4c0-2.64-0.080-4.48-0.24-5.36-0.24-1.28-0.64-2.24-1.44-2.8-0.8-0.64-2.16-1.040-4.080-1.2zM21.12 15.84l-8.8 5.28v-10.56l8.8 5.28z">
            </path>
        </symbol>
        <symbol id="icon-cart" viewBox="0 0 32 32">
            <path
                d="M4.8 1.6c-0.424 0-0.831 0.169-1.131 0.469s-0.469 0.707-0.469 1.131c0 0.424 0.169 0.831 0.469 1.131s0.707 0.469 1.131 0.469h1.952l0.488 1.955c0.005 0.022 0.010 0.045 0.016 0.067l2.173 8.688-1.429 1.427c-2.016 2.016-0.589 5.462 2.262 5.462h13.737c0.424 0 0.831-0.169 1.131-0.469s0.469-0.707 0.469-1.131-0.169-0.831-0.469-1.131c-0.3-0.3-0.707-0.469-1.131-0.469h-13.738l1.6-1.6h10.537c0.297-0 0.588-0.083 0.841-0.239s0.457-0.38 0.59-0.645l4.8-9.6c0.122-0.244 0.18-0.515 0.167-0.787s-0.094-0.537-0.237-0.769c-0.143-0.232-0.343-0.423-0.581-0.556s-0.506-0.203-0.779-0.203h-17.152l-0.496-1.989c-0.087-0.346-0.286-0.653-0.568-0.873s-0.628-0.339-0.984-0.339h-3.2zM25.6 26.4c0 0.636-0.253 1.247-0.703 1.697s-1.060 0.703-1.697 0.703c-0.636 0-1.247-0.253-1.697-0.703s-0.703-1.061-0.703-1.697 0.253-1.247 0.703-1.697c0.45-0.45 1.060-0.703 1.697-0.703s1.247 0.253 1.697 0.703c0.45 0.45 0.703 1.061 0.703 1.697zM10.4 28.8c0.636 0 1.247-0.253 1.697-0.703s0.703-1.061 0.703-1.697c0-0.636-0.253-1.247-0.703-1.697s-1.061-0.703-1.697-0.703c-0.636 0-1.247 0.253-1.697 0.703s-0.703 1.061-0.703 1.697c0 0.636 0.253 1.247 0.703 1.697s1.061 0.703 1.697 0.703z">
            </path>
        </symbol>
        <symbol id="icon-check" viewBox="0 0 32 32">
            <path fill="none" stroke-linejoin="round" stroke-linecap="round" stroke-miterlimit="4" stroke-width="3.5556"
                d="M26.667 8l-14.667 14.667-6.667-6.667"></path>
        </symbol>
        <symbol id="icon-logo" viewBox="0 0 32 32">
            <path fill="#6d8434" style="fill: var(--color1, #6d8434)"
                d="M32.005 16.003c0 8.838-7.165 16.003-16.003 16.003s-16.003-7.165-16.003-16.003c0-8.838 7.165-16.003 16.003-16.003s16.003 7.165 16.003 16.003z">
            </path>
            <path fill="#e8e8e2" style="fill: var(--color2, #e8e8e2)"
                d="M16.852 9.501c-0.267-0.403-0.616-0.73-1.023-0.967l-0.015-0.008c-1.15-0.66-2.63-0.544-3.996 0.222-2.538 1.421-4.198 4.092-4.198 7.255 0 4.221 3.055 7.63 7.047 8.276 0.435 0.070 0.881 0.106 1.335 0.106 0.009 0 0.020 0 0.030 0 4.613 0 8.353-3.74 8.353-8.353 0-0.033-0-0.066-0.001-0.099l0 0.005c-0.018-1.472-0.608-3.278-1.542-4.723-0.929-1.438-2.359-2.749-4.136-2.732-0.868 0-1.46 0.478-1.855 1.020v-0.001zM21.924 12.659c-0.173-0.029-0.372-0.046-0.575-0.046-0.136 0-0.271 0.008-0.404 0.022l0.016-0.001-0.884-1.486-1.31 0.777 0.68 1.143c-0.311 0.148-0.577 0.307-0.827 0.487l0.015-0.010c-0.011-0.038-0.015-0.053-0.020-0.068l0.006 0.023c-0.203-0.617-0.597-1.124-1.12-1.628l0.002-0.015c0.053-0.246 0.137-0.564 0.263-0.872 0.283-0.698 0.614-0.981 0.944-0.981h0.008c0.984-0.011 2.009 0.743 2.844 2.035 0.129 0.201 0.249 0.407 0.361 0.62h-0.001zM17.229 14.943c-0.251 0.007-0.51 0.034-0.762 0.089-0.211-0.349-0.481-0.639-0.8-0.866l-0.009-0.006c-0.398-0.29-0.896-0.464-1.436-0.464-0.317 0-0.621 0.060-0.899 0.17l0.017-0.006c-0.029-0.019-0.11-0.065-0.191-0.109l-0.055-0.028 2.463-2.415-1.066-1.088-2.923 2.864c-0.617-0.179-1.193-0.243-1.712-0.171 0.61-1.207 1.538-2.177 2.676-2.82l0.033-0.017c1.040-0.583 1.934-0.55 2.493-0.229 0.534 0.305 0.976 0.999 0.865 2.238l-0.034 0.383 0.288 0.255c0.626 0.554 0.887 0.912 0.999 1.255 0.080 0.24 0.105 0.53 0.055 0.965zM15.087 15.709c-0.65 0.545-1.087 1.31-1.341 2.135l-2.267-2.487-1.127 1.026 3.116 3.42c-0.005 0.909 0.112 1.838 0.281 2.679-2.702-0.948-4.605-3.478-4.605-6.452 0-0.010 0-0.021 0-0.031v0.002c0-0.791 0.221-1.223 0.48-1.413 0.245-0.179 0.782-0.327 1.881 0.080 0.398 0.146 0.858 0.373 1.385 0.7l0.382 0.238 0.393-0.221c0.476-0.266 0.838-0.171 1.116 0.023 0.122 0.086 0.226 0.192 0.306 0.301zM16.432 22.847l5.556-6.124-1.128-1.024-2.235 2.462 0.006-0.773-1.524-0.011-0.018 2.477-1.892 2.086c-0.13-0.644-0.204-1.385-0.204-2.143 0-0.090 0.001-0.179 0.003-0.269l-0 0.013c0.049-1.337 0.583-2.436 1.373-2.871 0.328-0.181 0.906-0.251 1.364-0.171l0.678 0.119 0.187-0.663c0.097-0.344 0.355-0.714 0.759-1.044 0.392-0.319 0.86-0.56 1.373-0.692l0.025-0.006c0.61-0.15 1.132-0.072 1.475 0.165 0.298 0.206 0.6 0.626 0.629 1.488v0.014l0.001 0.122c0 0.009 0 0.019 0 0.030 0 3.63-2.833 6.598-6.408 6.814l-0.019 0.001z">
            </path>
        </symbol>
        <symbol id="icon-organic" viewBox="0 0 32 32">
            <path fill="#fdc152" d="M32 16c0 8.837-7.163 16-16 16S0 24.837 0 16 7.163 0 16 0s16 7.163 16 16z"
                style="fill:var(--color1, #fdc152)" />
            <path fill="#010101"
                d="M25.174 17.182c.104-.813.731-1.233 1.538-1.13s1.308.668 1.204 1.481c-.104.812-.731 1.233-1.538 1.13s-1.308-.668-1.204-1.48zm.437.055c-.065.508.302.823.836.892.538.069.968-.145 1.033-.652s-.298-.822-.836-.892c-.533-.068-.968.145-1.033.653zm1.526 3.279a1.724 1.724 0 0 1-.093.217l-.478-.169.003-.01c.255-.458.065-.965-.461-1.152l-1.26-.445.179-.507 2.467.873-.179.507-.463-.164-.004.01c.263.24.403.517.289.841zm-1.317 2.303-.284.457-2.07-1.286c-.639-.397-.682-.96-.29-1.59.397-.639.951-.784 1.355-.599l-.286.461c-.223-.078-.468-.013-.692.348-.238.383-.185.686.215.935l.27.167.005-.009c-.092-.22-.131-.527.088-.879.346-.557.992-.734 1.693-.299.704.437.828 1.093.482 1.649-.219.353-.511.454-.74.475l-.005.009.261.162zm-1.37-1.676c-.23.37-.124.743.346 1.035s.851.221 1.081-.149c.249-.4.075-.791-.338-1.047-.409-.254-.84-.238-1.089.162zm-.991 3.283c.131.138.311.164.571-.083.312-.296.335-.502.121-.765l.379-.36c.327.381.365.89-.207 1.433-.419.398-.883.535-1.363.03l-.857-.902c-.127-.134-.224-.176-.362-.016l-.177-.186a.818.818 0 0 1 .188-.256c.208-.197.375-.215.588-.065l.007-.007c-.04-.28.066-.6.359-.878.386-.367.835-.37 1.138-.051.395.416.211.838-.176 1.382-.24.334-.383.541-.21.723zm-.544-1.666c-.323.307-.394.678-.101.986l.271.286c.021-.104.131-.294.277-.504.256-.377.308-.604.125-.797-.166-.175-.362-.172-.573.029zm-1.333 3.861c-.427.234-.899.171-1.186-.355l-.867-1.586.476-.26.794 1.451c.17.31.408.436.731.26.364-.199.477-.547.29-.888l-.764-1.397.472-.258 1.255 2.295-.472.258-.162-.296-.009.005c-.023.246-.163.556-.558.772zm-1.65 1.097c.141-.046.319.004.376.179s-.059.316-.2.361c-.151.049-.322.002-.379-.173s.053-.319.204-.368zm.117-.501-.511.166-.808-2.489.511-.166.808 2.489zm-3.219-.282c.054.261.263.56.72.501.523-.067.689-.542.627-1.03s-.338-.907-.866-.839c-.457.059-.585.395-.568.687l-.533.068c-.036-.604.37-1.105 1.045-1.192.777-.099 1.351.395 1.455 1.208s-.327 1.436-1.099 1.534c-.676.086-1.172-.289-1.314-.869l.533-.068zm-5.187.796c.328.118.466.124.554-.16l.085-.274-.459-.143.131-.42.459.143.648-2.077.518.162-.648 2.077.357.112-.131.42-.357-.111-.099.318c-.164.528-.447.643-.858.515a1.87 1.87 0 0 1-.341-.146l.01.005.131-.42zm-.039-3.661c.717.396.878 1.133.484 1.846s-1.102.971-1.82.575c-.717-.396-.877-1.133-.484-1.846s1.103-.971 1.82-.575zm-.213.385c-.448-.247-.877-.022-1.137.449-.262.475-.222.954.227 1.201s.874.026 1.136-.449c.26-.47.222-.954-.226-1.201z"
                style="fill:var(--color2, #010101)" />
            <path fill="#010101"
                d="M9.701 22.675c.594.564.562 1.318.001 1.908s-1.312.66-1.906.095c-.594-.564-.562-1.318-.001-1.908s1.312-.66 1.906-.095zm-.303.319c-.371-.353-.843-.243-1.213.147-.374.393-.456.866-.085 1.219s.839.246 1.213-.147c.371-.389.456-.866.085-1.219z"
                style="fill:var(--color2, #010101)" />
            <path fill="#010101"
                d="m4.684 22.229-.277-.461 3.138-1.885.277.461-.259.156.005.009a.978.978 0 0 1 .736.49c.346.575.154 1.27-.584 1.713s-1.441.286-1.786-.289c-.208-.347-.178-.664-.078-.885l-.005-.009-1.168.701zm3.196-1.084c-.227-.378-.678-.423-1.174-.125-.5.3-.668.717-.441 1.095.243.404.74.397 1.18.134s.678-.7.436-1.104zm-1.031-4.77c.032.819-.517 1.337-1.331 1.368s-1.401-.443-1.432-1.261c-.032-.819.517-1.337 1.331-1.368s1.401.443 1.432 1.262zm-.44.017c-.02-.512-.434-.762-.971-.741-.542.021-.931.302-.911.814s.429.762.971.741c.538-.02.931-.302.911-.814zm-2.04-3.032c.016-.091.033-.155.057-.229l.499.09-.002.01c-.177.494.093.963.642 1.062l1.316.235-.095.529-2.575-.461.095-.529.484.086.002-.01c-.298-.194-.482-.445-.421-.783zm.917-2.475.206-.497 2.252.933c.695.288.828.836.544 1.522-.288.695-.811.928-1.239.811l.208-.501c.232.041.464-.063.626-.456.173-.416.072-.707-.364-.888l-.293-.122-.004.01c.127.202.214.499.056.882-.251.605-.86.885-1.621.57-.766-.317-.995-.944-.744-1.549.159-.383.431-.531.654-.588l.004-.01-.284-.117zm1.624 1.432c.166-.402.002-.753-.509-.965s-.876-.08-1.042.322c-.18.435.054.793.503.979.445.184.868.099 1.048-.336zm.446-3.405c-.15-.115-.333-.112-.55.173-.26.342-.251.549.003.774l-.316.415c-.384-.324-.502-.82-.024-1.447.35-.46.786-.669 1.34-.247l.99.754c.147.112.249.138.36-.042l.204.155a.806.806 0 0 1-.146.284l.001-.002c-.174.228-.336.272-.571.158l-.006.008c.084.27.03.602-.214.924-.323.424-.766.498-1.116.231-.456-.347-.341-.794-.046-1.393.184-.368.292-.595.093-.747zm.802 1.558c.27-.355.281-.732-.057-.99l-.314-.239c-.004.106-.082.31-.194.541-.192.413-.208.646.003.807.192.146.384.112.561-.12zm.663-4.008c.383-.3.859-.316 1.228.156l1.116 1.422-.427.335-1.021-1.301c-.218-.278-.474-.363-.764-.136-.326.256-.381.618-.141.924l.983 1.253-.423.332-1.615-2.058.423-.332.209.266.008-.006c-.018-.246.069-.575.424-.853zm1.473-1.373c-.132.068-.315.048-.4-.115s.006-.321.139-.389c.141-.073.317-.055.402.108s0 .323-.141.396zm-.034.514.477-.247 1.204 2.323-.477.247-1.204-2.323zm3.225-.252c-.096-.249-.351-.51-.792-.378-.505.151-.592.648-.451 1.119s.481.839.991.686c.442-.132.512-.485.448-.77l.515-.154c.134.59-.184 1.151-.836 1.347-.75.225-1.398-.169-1.633-.954s.089-1.47.834-1.693c.652-.196 1.204.093 1.438.643l-.515.155zm4.966-1.632c-.342-.063-.479-.046-.52.248l-.04.284.477.067-.061.436-.477-.067-.301 2.155-.538-.075.301-2.155-.37-.052.061-.436.37.052.046-.33c.077-.548.337-.708.763-.648.132.018.246.05.35.085l-.061.436zm.645 3.602c-.772-.273-1.051-.975-.779-1.742s.929-1.138 1.702-.864c.772.273 1.051.975.779 1.742s-.929 1.138-1.701.864zm.147-.415c.483.171.868-.122 1.048-.628.181-.511.063-.977-.419-1.148s-.867.117-1.048.628c-.179.507-.063.977.419 1.148z"
                style="fill:var(--color2, #010101)" />
            <path fill="#010101"
                d="M21.17 8.361c-.678-.46-.77-1.209-.313-1.883s1.187-.865 1.865-.405c.678.46.77 1.209.313 1.883s-1.187.865-1.865.405zm.247-.364c.424.287.871.102 1.173-.343.305-.449.308-.929-.115-1.216s-.868-.107-1.173.343c-.302.445-.308.929.115 1.217zm4.83.033.347.411-2.796 2.363-.347-.411.23-.195-.006-.008a.982.982 0 0 1-.805-.365c-.433-.512-.355-1.229.302-1.784s1.376-.513 1.809-.001c.261.309.282.627.219.861l.006.008 1.04-.879zm-2.98 1.582c.284.336.737.309 1.179-.065.446-.377.544-.815.26-1.152-.304-.36-.795-.274-1.186.057s-.557.8-.253 1.159zM17.6 14.72c-2.88.64-3.552 2.614-4.218 4.269l.605.211.304-.736c.154.054.314.096.429.096 3.52 0 4.48-5.44 4.48-5.44-.32.64-2.56.72-4.16 1.04s-2.24 1.68-2.24 2.32.56 1.2.56 1.2c1.04-2.96 4.24-2.96 4.24-2.96z"
                style="fill:var(--color2, #010101)" />
        </symbol>
        <symbol id="icon-discount" viewBox="0 0 32 32">
            <path fill="#6d8434" d="M32 16c0 8.837-7.163 16-16 16S0 24.837 0 16 7.163 0 16 0s16 7.163 16 16z"
                style="fill:var(--color3, #6d8434)" />
            <path fill="#fafafa"
                d="m26.947 20.862-.233.63-4.293-1.582.233-.63.354.131.005-.012a1.224 1.224 0 0 1-.099-1.1c.29-.787 1.118-1.143 2.127-.771s1.406 1.18 1.116 1.966c-.175.475-.508.693-.802.769l-.004.012 1.597.588zm-3.558-2.265c-.19.516.118.992.797 1.242.685.252 1.223.089 1.413-.427.204-.553-.192-1.033-.793-1.254s-1.213-.113-1.418.439zm1.704 3.932c.11-.149.326-.229.513-.093s.171.363.061.512c-.117.16-.325.238-.511.102s-.18-.361-.062-.521zm-.248-.593-.397.542-2.641-1.93.397-.542 2.64 1.93zm-3.017 1.367c-.555.274-1.144.585-1.641-.017-.4-.483-.234-1.126.379-1.63.815-.671 1.48-.58 1.945-.068l-.504.415c-.249-.251-.559-.385-1.093.054-.361.297-.367.601-.236.759.261.316.582.092 1.027-.124.477-.236 1.086-.604 1.559-.032.342.414.25 1.046-.382 1.567-.687.565-1.319.464-1.716.053l.504-.415c.197.169.464.29.869-.044.311-.256.381-.513.235-.69-.212-.257-.51-.045-.945.173zm-3.478 1.859c.132.307.462.62 1.007.435.624-.212.709-.836.51-1.417s-.641-1.026-1.271-.812c-.545.185-.617.628-.523.982l-.636.216c-.196-.731.176-1.445.982-1.719.927-.315 1.755.148 2.085 1.117s-.042 1.839-.963 2.152c-.806.274-1.509-.062-1.828-.738l.637-.216zm-2.744-1.917c1.022.062 1.598.809 1.537 1.825s-.725 1.687-1.747 1.625-1.598-.81-1.537-1.825c.062-1.016.725-1.687 1.747-1.625zm-.033.55c-.639-.039-1.002.445-1.042 1.116-.041.677.261 1.196.9 1.235s1.001-.439 1.042-1.116c.041-.671-.261-1.196-.9-1.235zm-4.802 1.48-.605-.293 1.431-2.941.604.293-.185.38.011.005c.268-.155.685-.237 1.191.009.547.266.825.791.497 1.465l-.988 2.032-.61-.297.905-1.859c.193-.397.149-.731-.266-.932-.466-.226-.903-.09-1.116.348l-.871 1.79zm-2.938-2.318c-.405-.453-.464-1.045.095-1.543l1.685-1.504.453.505-1.542 1.377c-.33.294-.416.62-.108.963.346.386.802.425 1.165.101l1.485-1.326.449.501-2.439 2.178-.449-.5.315-.281-.008-.01c-.307.042-.724-.041-1.1-.46zm-1.386-3.581.253.56 1.617-.728c.339-.153.306-.334.103-.72l.502-.226c.085.109.163.236.237.399.221.49.121.858-.509 1.141l-1.669.752.196.431-.502.226-.195-.432-.94.423-.279-.618.939-.423-.253-.56.501-.226zm-1.953-6.729.146-.656 4.467.994-.146.656-.368-.082-.003.013c.181.217.355.584.245 1.077-.182.818-.955 1.283-2.004 1.049s-1.552-.981-1.37-1.799c.11-.493.411-.755.692-.869l.003-.012-1.662-.37zm3.828 1.77c.12-.537-.25-.967-.956-1.124-.713-.158-1.223.076-1.343.613-.128.574.329.997.953 1.136s1.218-.05 1.346-.625zm-2.22-3.669c-.089.163-.293.27-.495.161s-.218-.336-.129-.499c.095-.174.291-.279.493-.17s.226.334.131.508zm.326.555.321-.59 2.875 1.559-.321.59-2.875-1.559zm2.813-1.769c.514-.344 1.057-.73 1.629-.198.46.427.379 1.086-.163 1.666-.72.772-1.391.769-1.919.322l.445-.477c.279.216.605.308 1.076-.197.318-.341.285-.643.135-.782-.3-.279-.59-.015-1.002.257-.443.297-.997.741-1.541.236-.394-.366-.385-1.004.174-1.603.607-.651 1.246-.633 1.694-.277l-.445.477c-.219-.141-.498-.227-.856.157-.275.294-.31.558-.142.715.244.227.511-.023.914-.295z"
                style="fill:var(--color4, #fafafa)" />
            <path fill="#fafafa"
                d="M12.396 7.25c-.172-.286-.542-.552-1.057-.294-.59.294-.589.924-.314 1.473s.774.929 1.37.632c.515-.258.526-.707.386-1.044l.601-.3c.293.698.021 1.456-.74 1.836-.876.437-1.758.092-2.218-.823-.459-.915-.208-1.828.662-2.262.762-.38 1.504-.143 1.911.483l-.601.3zm2.976 1.515c-1.021.075-1.693-.589-1.767-1.604s.492-1.769 1.514-1.843c1.021-.075 1.693.589 1.767 1.604s-.492 1.769-1.514 1.843zm-.041-.548c.638-.046.933-.575.884-1.245-.05-.677-.418-1.15-1.057-1.104s-.933.569-.884 1.245c.05.67.419 1.15 1.057 1.104zm4.588-2.111.638.21-1.027 3.105-.638-.21.133-.401-.012-.004c-.244.189-.647.326-1.182.149-.577-.19-.923-.675-.688-1.386l.709-2.145.644.213-.649 1.963c-.139.419-.051.745.387.889.492.163.907-.031 1.06-.493l.625-1.89zm3.224 1.898c.461.396.596.975.108 1.542l-1.473 1.713-.515-.442 1.348-1.567c.288-.335.331-.669-.019-.969-.394-.338-.851-.316-1.168.052l-1.298 1.509-.51-.437 2.132-2.479.51.437-.276.32.01.009c.298-.082.723-.055 1.15.311zm1.84 3.338-.326-.521-1.504.939c-.315.196-.258.372-.005.727l-.467.291a1.93 1.93 0 0 1-.283-.354l-.005-.008c-.286-.456-.236-.834.35-1.2l1.553-.969-.251-.402.467-.291.252.402.874-.546.36.575-.874.545.326.521-.467.291zm-7.427 3.414c-2.8.622-3.453 2.541-4.101 4.15l.588.205.295-.715c.149.053.305.093.417.093 3.422 0 4.355-5.289 4.355-5.289-.311.622-2.489.7-4.044 1.011s-2.178 1.633-2.178 2.255c0 .622.544 1.167.544 1.167 1.011-2.878 4.123-2.878 4.123-2.878z"
                style="fill:var(--color4, #fafafa)" />
        </symbol>
        <symbol id="icon-close-btn" viewBox="0 0 32 32">
            <path
                d="M25 9.093l-2.093-2.093-6.907 6.907-6.907-6.907-2.093 2.093 6.907 6.907-6.907 6.907 2.093 2.093 6.907-6.907 6.907 6.907 2.093-2.093-6.907-6.907 6.907-6.907z">
            </path>
        </symbol>
        <symbol id="icon-4" viewBox="0 0 33 32">
            <path fill="none" stroke-linejoin="round" stroke-linecap="round" stroke-miterlimit="4" stroke-width="2"
                d="M22.667 21.333l-5.333-5.333 5.333-5.333"></path>
            <path fill="none" stroke-linejoin="round" stroke-linecap="round" stroke-miterlimit="4" stroke-width="2"
                d="M17.333 21.333l-5.333-5.333 5.333-5.333"></path>
        </symbol>
        <symbol id="icon-3" viewBox="0 0 33 32">
            <path fill="none" stroke-linejoin="round" stroke-linecap="round" stroke-miterlimit="4" stroke-width="2"
                d="M11.333 21.333l5.333-5.333-5.333-5.333"></path>
            <path fill="none" stroke-linejoin="round" stroke-linecap="round" stroke-miterlimit="4" stroke-width="2"
                d="M16.667 21.333l5.333-5.333-5.333-5.333"></path>
        </symbol>
        <symbol id="icon-2" viewBox="0 0 33 32">
            <path fill="none" stroke-linejoin="round" stroke-linecap="round" stroke-miterlimit="4" stroke-width="2"
                d="M19.333 21.333l-5.333-5.333 5.333-5.333"></path>
        </symbol>
        <symbol id="icon-1" viewBox="0 0 33 32">
            <path fill="none" stroke-linejoin="round" stroke-linecap="round" stroke-miterlimit="4" stroke-width="2"
                d="M14 21.333l5.333-5.333-5.333-5.333">
            </path>
        </symbol>
        <symbol id="icon-search" viewBox="0 0 32 32">
            <path
                d="M20.667 18.667h-1.053l-0.373-0.36c1.352-1.568 2.095-3.57 2.093-5.64 0-1.714-0.508-3.39-1.46-4.815s-2.306-2.536-3.89-3.192c-1.584-0.656-3.326-0.828-5.007-0.493s-3.225 1.16-4.437 2.372c-1.212 1.212-2.037 2.756-2.372 4.437s-0.163 3.424 0.493 5.007c0.656 1.584 1.767 2.937 3.192 3.89s3.101 1.46 4.815 1.46c2.147 0 4.12-0.787 5.64-2.093l0.36 0.373v1.053l6.667 6.653 1.987-1.987-6.653-6.667zM12.667 18.667c-3.32 0-6-2.68-6-6s2.68-6 6-6c3.32 0 6 2.68 6 6s-2.68 6-6 6z">
            </path>
        </symbol>
    </defs>
</svg>